<svg id="Layer_1" data-name="Layer 1" xmlns="http://www.w3.org/2000/svg" viewBox="0 0 612 792"><defs><style>.cls-1{font-size:22.07px;}.cls-1,.cls-24,.cls-28,.cls-4,.cls-6,.cls-9{fill:#231f20;}.cls-1,.cls-17,.cls-23,.cls-5{font-family:TrebuchetMS-Bold, Trebuchet MS;}.cls-18,.cls-2,.cls-23,.cls-6{font-weight:700;}.cls-3{font-family:Helvetica, Helvetica;}.cls-17,.cls-23,.cls-25,.cls-26,.cls-27,.cls-4,.cls-5{font-size:12px;}.cls-20,.cls-24,.cls-29,.cls-30,.cls-4,.cls-9{font-family:TrebuchetMS, Trebuchet MS;}.cls-18,.cls-23,.cls-5{fill:#009ab1;}.cls-30,.cls-7{letter-spacing:-0.02em;}.cls-8{letter-spacing:-0.11em;}.cls-10{letter-spacing:-0.11em;}.cls-11{letter-spacing:-0.11em;}.cls-12{letter-spacing:-0.05em;}.cls-13{letter-spacing:-0.06em;}.cls-14{letter-spacing:-0.05em;}.cls-15,.cls-27{letter-spacing:-0.04em;}.cls-16{letter-spacing:-0.07em;}.cls-19{letter-spacing:0.03em;}.cls-21{letter-spacing:-0.14em;}.cls-22{letter-spacing:-0.06em;}.cls-24{font-size:5px;}.cls-26{letter-spacing:-0.04em;}.cls-29{letter-spacing:-0.12em;}.cls-31{letter-spacing:-0.03em;}</style></defs><title>Comley_Resume</title><text class="cls-1" transform="translate(71.43 89.29)"><tspan class="cls-2">Liza Comley</tspan><tspan class="cls-3" x="124.79" y="0"> </tspan></text><text class="cls-4" transform="translate(71.43 127.92)">elc2375@g.rit.edu</text><text class="cls-5" transform="translate(71.43 176)"><tspan class="cls-2">Education</tspan><tspan class="cls-6"><tspan x="0" y="36">Rochester Institute of</tspan><tspan class="cls-7" x="122.11" y="36"> </tspan><tspan class="cls-8" x="125.51" y="36">T</tspan><tspan x="131.52" y="36">echnology</tspan></tspan><tspan class="cls-9"><tspan x="0" y="54">B</tspan><tspan class="cls-10" x="6.79" y="54">F</tspan><tspan x="11.82" y="54">A, New Media Design</tspan><tspan x="0" y="72">G</tspan><tspan class="cls-11" x="8.12" y="72">P</tspan><tspan x="13.47" y="72">A: 3.48/ 4.0</tspan><tspan x="0" y="90">Expected graduation date, May 2021</tspan><tspan x="0" y="108">RI</tspan><tspan class="cls-7" x="10.32" y="108">T</tspan><tspan x="17.07" y="108"> </tspan><tspan class="cls-12" x="20.69" y="108">P</tspan><tspan x="26.82" y="108">residential</tspan><tspan class="cls-13" x="84.12" y="108"> </tspan><tspan class="cls-14" x="87.07" y="108">A</tspan><tspan x="93.6" y="108">ward </tspan><tspan class="cls-15" x="123.8" y="108">R</tspan><tspan x="130.29" y="108">ecipient</tspan><tspan x="0" y="126">Dean</tspan><tspan class="cls-16" x="26.77" y="126">’</tspan><tspan x="30.35" y="126">s List Spring 2017, Fall 2017</tspan><tspan x="0" y="162"> </tspan></tspan></text><text class="cls-4" transform="translate(215.1 127.92)">518.881.8437</text><text class="cls-17" transform="translate(342 434.93)"><tspan class="cls-18">Acti<tspan class="cls-19" x="22.08" y="0">v</tspan><tspan x="28.78" y="0">ities</tspan></tspan><tspan class="cls-2"><tspan x="0" y="32.4">RI</tspan><tspan class="cls-7" x="10.67" y="32.4">T</tspan><tspan x="17.79" y="32.4" xml:space="preserve"> Improv</tspan></tspan><tspan class="cls-20"><tspan class="cls-7" x="0" y="50.4">V</tspan><tspan x="6.83" y="50.4">ice </tspan><tspan class="cls-12" x="26.36" y="50.4">P</tspan><tspan x="32.48" y="50.4">resident,</tspan><tspan class="cls-13" x="80.92" y="50.4"> </tspan><tspan x="83.88" y="50.4">April 2018 - present</tspan><tspan x="0" y="68.4">Membe</tspan><tspan class="cls-21" x="38.25" y="68.4">r</tspan><tspan x="41.2" y="68.4">,</tspan><tspan class="cls-13" x="45.61" y="68.4"> </tspan><tspan x="48.56" y="68.4">August 2017 - present</tspan></tspan><tspan class="cls-2"><tspan x="0" y="104.4">The Improvessionals</tspan></tspan><tspan class="cls-20"><tspan x="0" y="122.4">Membe</tspan><tspan class="cls-21" x="38.25" y="122.4">r</tspan><tspan x="41.2" y="122.4">, December 2017 - present</tspan></tspan><tspan class="cls-2"><tspan x="0" y="158.4">New Media Club</tspan></tspan><tspan class="cls-20"><tspan x="0" y="176.4">Membe</tspan><tspan class="cls-21" x="38.25" y="176.4">r</tspan><tspan x="41.2" y="176.4">,</tspan><tspan class="cls-13" x="45.61" y="176.4"> </tspan><tspan x="48.56" y="176.4">August 2017 - present</tspan></tspan><tspan class="cls-2"><tspan x="0" y="212.4">Thought</tspan><tspan class="cls-13" x="46.23" y="212.4"> </tspan><tspan x="49.18" y="212.4">At </tspan><tspan class="cls-7" x="65.16" y="212.4">W</tspan><tspan x="75.54" y="212.4">ork</tspan></tspan><tspan class="cls-20"><tspan class="cls-22" x="0" y="230.4">V</tspan><tspan x="6.28" y="230.4">oluntee</tspan><tspan class="cls-21" x="47.21" y="230.4">r</tspan><tspan x="50.17" y="230.4">, October 2017</tspan></tspan><tspan class="cls-2"><tspan x="0" y="266.4">Regional </tspan><tspan class="cls-12" x="51.25" y="266.4">F</tspan><tspan x="57.69" y="266.4">ood Bank</tspan></tspan><tspan class="cls-20"><tspan class="cls-22" x="0" y="284.4">V</tspan><tspan x="6.28" y="284.4">oluntee</tspan><tspan class="cls-21" x="47.21" y="284.4">r</tspan><tspan x="50.17" y="284.4" xml:space="preserve">, September 2016 - 2017  </tspan></tspan></text><text></text><text class="cls-23" transform="translate(342 176.9) scale(0.97 1)">Skills </text><text class="cls-24" transform="translate(342 193.9)"> <tspan class="cls-25" x="0" y="18">Excelent communication</tspan><tspan class="cls-25" x="0" y="36">Quick to learn new skills</tspan><tspan class="cls-25" x="0" y="54">Organized</tspan><tspan class="cls-25" x="0" y="72">Leadership experience</tspan><tspan class="cls-26" x="0" y="90">T</tspan><tspan class="cls-25" x="6.47" y="90">ime management</tspan><tspan class="cls-25" x="0" y="108">Conflict </tspan><tspan class="cls-27" x="45.88" y="108">R</tspan><tspan class="cls-25" x="52.38" y="108">esolution</tspan></text><text class="cls-4"><tspan x="342" y="337.5">Adobe Creative Suite</tspan><tspan x="342" y="355.5">Microsoft Suite</tspan><tspan x="342" y="373.5">Cinema 4D</tspan><tspan x="342" y="391.5">3DS Max</tspan></text><text class="cls-5" transform="translate(71.43 377)"><tspan class="cls-2"><tspan class="cls-7">W</tspan><tspan x="10.39" y="0">ork Experience</tspan></tspan><tspan class="cls-6"><tspan x="0" y="36">Union College Bookstore</tspan></tspan><tspan class="cls-28"><tspan class="cls-2" x="0" y="54">Clerk </tspan><tspan class="cls-20" x="33.09" y="54">- Schenectad</tspan><tspan class="cls-29" x="102.72" y="54">y</tspan><tspan class="cls-20" x="107.17" y="54">, N</tspan><tspan class="cls-30" x="122.85" y="54">Y</tspan></tspan><tspan class="cls-9"><tspan x="0" y="72">Summers, 2014 - 2017</tspan><tspan x="0" y="90" xml:space="preserve"> - </tspan><tspan class="cls-12" x="11.64" y="90">P</tspan><tspan x="17.77" y="90">repared online computer and apparel</tspan><tspan x="0" y="108" xml:space="preserve">   orders to be shipped. </tspan><tspan x="0" y="126" xml:space="preserve"> - Rang up customers.</tspan><tspan x="0" y="144" xml:space="preserve"> - </tspan><tspan class="cls-12" x="11.64" y="144">P</tspan><tspan x="17.77" y="144">rovided customer service.</tspan><tspan x="0" y="162" xml:space="preserve"> - Cleaned and organized the store.</tspan><tspan x="0" y="180" xml:space="preserve"> -</tspan><tspan class="cls-13" x="8.02" y="180"> </tspan><tspan x="10.97" y="180">Assisted wherever else needed.</tspan></tspan><tspan class="cls-6"><tspan x="0" y="216">Camp Invention</tspan></tspan><tspan class="cls-28"><tspan class="cls-2" x="0" y="234">Counselor </tspan><tspan class="cls-20" x="59.44" y="234">- Saratoga Springs, N</tspan><tspan class="cls-30" x="171.31" y="234">Y</tspan></tspan><tspan class="cls-9"><tspan x="0" y="252">June 2015</tspan><tspan x="0" y="270" xml:space="preserve"> - Looked after the youngest group</tspan><tspan x="0" y="288" xml:space="preserve">   of campers (4 years old).</tspan><tspan x="0" y="306" xml:space="preserve"> - Helped kids go through the day</tspan><tspan class="cls-16" x="179.37" y="306">’</tspan><tspan x="182.95" y="306">s </tspan><tspan x="0" y="324" xml:space="preserve">   schedule in an organized fashion.</tspan><tspan x="0" y="342" xml:space="preserve"> - </tspan><tspan class="cls-31" x="11.64" y="342">K</tspan><tspan x="18.17" y="342">ept large groups of kids organized.</tspan></tspan></text><text class="cls-4" transform="translate(347.09 126)">36 Riesling Rd. Niskayuna, N<tspan class="cls-7" x="152.17" y="0">Y</tspan><tspan x="158.79" y="0" xml:space="preserve"> 12309</tspan></text></svg>